<?xml version="1.0" encoding="UTF-8" standalone="no"?>
<!DOCTYPE svg PUBLIC "-//W3C//DTD SVG 1.1//EN"
 "http://www.w3.org/Graphics/SVG/1.1/DTD/svg11.dtd">
<!-- Generated by graphviz version 2.42.2 ()
 -->
<!-- Title: G Pages: 1 -->
<svg width="362pt" height="116pt"
 viewBox="0.00 0.00 362.19 116.00" xmlns="http://www.w3.org/2000/svg" xmlns:xlink="http://www.w3.org/1999/xlink">
<g id="graph0" class="graph" transform="scale(1 1) rotate(0) translate(4 112)">
<title>G</title>
<polygon fill="white" stroke="transparent" points="-4,4 -4,-112 358.19,-112 358.19,4 -4,4"/>
<!-- category -->
<g id="node1" class="node">
<title>category</title>
<ellipse fill="none" stroke="black" cx="172" cy="-90" rx="51.99" ry="18"/>
<text text-anchor="middle" x="172" y="-86.3" font-family="Times-Roman" font-size="14.00">category</text>
</g>
<!-- blueness -->
<g id="node2" class="node">
<title>blueness</title>
<ellipse fill="none" stroke="black" cx="52" cy="-18" rx="51.99" ry="18"/>
<text text-anchor="middle" x="52" y="-14.3" font-family="Times-Roman" font-size="14.00">blueness</text>
</g>
<!-- category&#45;&gt;blueness -->
<g id="edge1" class="edge">
<title>category&#45;&gt;blueness</title>
<path fill="none" stroke="black" d="M146.55,-74.15C128.97,-63.9 105.38,-50.14 86.17,-38.93"/>
<polygon fill="black" stroke="black" points="87.81,-35.84 77.41,-33.82 84.28,-41.89 87.81,-35.84"/>
</g>
<!-- eggness -->
<g id="node3" class="node">
<title>eggness</title>
<ellipse fill="none" stroke="black" cx="172" cy="-18" rx="50.09" ry="18"/>
<text text-anchor="middle" x="172" y="-14.3" font-family="Times-Roman" font-size="14.00">eggness</text>
</g>
<!-- category&#45;&gt;eggness -->
<g id="edge2" class="edge">
<title>category&#45;&gt;eggness</title>
<path fill="none" stroke="black" d="M172,-71.7C172,-63.98 172,-54.71 172,-46.11"/>
<polygon fill="black" stroke="black" points="175.5,-46.1 172,-36.1 168.5,-46.1 175.5,-46.1"/>
</g>
<!-- vanadium -->
<g id="node4" class="node">
<title>vanadium</title>
<ellipse fill="none" stroke="black" cx="297" cy="-18" rx="57.39" ry="18"/>
<text text-anchor="middle" x="297" y="-14.3" font-family="Times-Roman" font-size="14.00">vanadium</text>
</g>
<!-- category&#45;&gt;vanadium -->
<g id="edge3" class="edge">
<title>category&#45;&gt;vanadium</title>
<path fill="none" stroke="black" d="M198.2,-74.33C216.45,-64.1 241.02,-50.34 261.1,-39.1"/>
<polygon fill="black" stroke="black" points="262.95,-42.08 269.96,-34.14 259.53,-35.97 262.95,-42.08"/>
</g>
</g>
</svg>
