<?xml version="1.0" encoding="UTF-8" standalone="no"?>
<!DOCTYPE svg PUBLIC "-//W3C//DTD SVG 1.1//EN"
 "http://www.w3.org/Graphics/SVG/1.1/DTD/svg11.dtd">
<!-- Generated by graphviz version 2.42.2 ()
 -->
<!-- Title: G Pages: 1 -->
<svg width="344pt" height="134pt"
 viewBox="0.00 0.00 344.10 133.74" xmlns="http://www.w3.org/2000/svg" xmlns:xlink="http://www.w3.org/1999/xlink">
<g id="graph0" class="graph" transform="scale(1 1) rotate(0) translate(4 129.74)">
<title>G</title>
<polygon fill="white" stroke="transparent" points="-4,4 -4,-129.74 340.1,-129.74 340.1,4 -4,4"/>
<!-- Coca&#45;Cola\nisn&#39;t unhealthy -->
<g id="node1" class="node">
<title>Coca&#45;Cola\nisn&#39;t unhealthy</title>
<ellipse fill="none" stroke="black" cx="86.27" cy="-98.87" rx="86.03" ry="26.74"/>
<text text-anchor="middle" x="86.27" y="-102.67" font-family="Times-Roman" font-size="14.00">Coca&#45;Cola</text>
<text text-anchor="middle" x="86.27" y="-87.67" font-family="Times-Roman" font-size="14.00">isn&#39;t unhealthy</text>
</g>
<!-- drink Coca&#45;Cola -->
<g id="node2" class="node">
<title>drink Coca&#45;Cola</title>
<ellipse fill="none" stroke="black" cx="174.27" cy="-18" rx="83.69" ry="18"/>
<text text-anchor="middle" x="174.27" y="-14.3" font-family="Times-Roman" font-size="14.00">drink Coca&#45;Cola</text>
</g>
<!-- Coca&#45;Cola\nisn&#39;t unhealthy&#45;&gt;drink Coca&#45;Cola -->
<g id="edge1" class="edge">
<title>Coca&#45;Cola\nisn&#39;t unhealthy&#45;&gt;drink Coca&#45;Cola</title>
<path fill="none" stroke="black" d="M113.63,-73.35C124.59,-63.52 137.17,-52.25 148.02,-42.53"/>
<polygon fill="black" stroke="black" points="150.45,-45.04 155.56,-35.76 145.78,-39.83 150.45,-45.04"/>
</g>
<!-- Coca&#45;Cola\ntastes great -->
<g id="node3" class="node">
<title>Coca&#45;Cola\ntastes great</title>
<ellipse fill="none" stroke="black" cx="263.27" cy="-98.87" rx="72.66" ry="26.74"/>
<text text-anchor="middle" x="263.27" y="-102.67" font-family="Times-Roman" font-size="14.00">Coca&#45;Cola</text>
<text text-anchor="middle" x="263.27" y="-87.67" font-family="Times-Roman" font-size="14.00">tastes great</text>
</g>
<!-- Coca&#45;Cola\ntastes great&#45;&gt;drink Coca&#45;Cola -->
<g id="edge2" class="edge">
<title>Coca&#45;Cola\ntastes great&#45;&gt;drink Coca&#45;Cola</title>
<path fill="none" stroke="black" d="M236.08,-73.78C224.89,-63.86 211.97,-52.41 200.85,-42.56"/>
<polygon fill="black" stroke="black" points="202.92,-39.72 193.11,-35.7 198.28,-44.95 202.92,-39.72"/>
</g>
</g>
</svg>
