<?xml version="1.0" encoding="UTF-8" standalone="no"?>
<!DOCTYPE svg PUBLIC "-//W3C//DTD SVG 1.1//EN"
 "http://www.w3.org/Graphics/SVG/1.1/DTD/svg11.dtd">
<!-- Generated by graphviz version 2.42.2 ()
 -->
<!-- Title: G Pages: 1 -->
<svg width="350pt" height="116pt"
 viewBox="0.00 0.00 350.00 116.00" xmlns="http://www.w3.org/2000/svg" xmlns:xlink="http://www.w3.org/1999/xlink">
<g id="graph0" class="graph" transform="scale(1 1) rotate(0) translate(4 112)">
<title>G</title>
<polygon fill="white" stroke="transparent" points="-4,4 -4,-112 346,-112 346,4 -4,4"/>
<!-- A -->
<g id="node1" class="node">
<title>A</title>
<ellipse fill="none" stroke="black" cx="99" cy="-90" rx="27" ry="18"/>
<text text-anchor="middle" x="99" y="-86.3" font-family="Times,serif" font-size="14.00">A</text>
</g>
<!-- tail -->
<g id="node2" class="node">
<title>tail</title>
<ellipse fill="none" stroke="black" cx="165" cy="-18" rx="27" ry="18"/>
<text text-anchor="middle" x="165" y="-14.3" font-family="Times,serif" font-size="14.00">tail</text>
</g>
<!-- A&#45;&gt;tail -->
<g id="edge1" class="edge">
<title>A&#45;&gt;tail</title>
<path fill="none" stroke="black" d="M113,-74.15C122.01,-64.6 133.89,-51.99 144.02,-41.25"/>
<polygon fill="black" stroke="black" points="146.71,-43.5 151.02,-33.82 141.62,-38.7 146.71,-43.5"/>
</g>
<!-- blowhole -->
<g id="node6" class="node">
<title>blowhole</title>
<ellipse fill="none" stroke="black" cx="74" cy="-18" rx="46.29" ry="18"/>
<text text-anchor="middle" x="74" y="-14.3" font-family="Times,serif" font-size="14.00">blowhole</text>
</g>
<!-- A&#45;&gt;blowhole -->
<g id="edge5" class="edge">
<title>A&#45;&gt;blowhole</title>
<path fill="none" stroke="black" d="M93.08,-72.41C90.22,-64.42 86.73,-54.64 83.52,-45.64"/>
<polygon fill="black" stroke="black" points="86.72,-44.2 80.06,-35.96 80.12,-46.55 86.72,-44.2"/>
</g>
<!-- flippers -->
<g id="node7" class="node">
<title>flippers</title>
<ellipse fill="none" stroke="black" cx="248" cy="-18" rx="38.19" ry="18"/>
<text text-anchor="middle" x="248" y="-14.3" font-family="Times,serif" font-size="14.00">flippers</text>
</g>
<!-- A&#45;&gt;flippers -->
<g id="edge9" class="edge">
<title>A&#45;&gt;flippers</title>
<path fill="none" stroke="black" d="M120.32,-78.92C125.14,-76.64 130.25,-74.24 135,-72 160.9,-59.81 190.17,-46.08 212.43,-35.66"/>
<polygon fill="black" stroke="black" points="213.93,-38.81 221.51,-31.4 210.97,-32.48 213.93,-38.81"/>
</g>
<!-- B -->
<g id="node3" class="node">
<title>B</title>
<ellipse fill="none" stroke="black" cx="27" cy="-90" rx="27" ry="18"/>
<text text-anchor="middle" x="27" y="-86.3" font-family="Times,serif" font-size="14.00">B</text>
</g>
<!-- B&#45;&gt;tail -->
<g id="edge2" class="edge">
<title>B&#45;&gt;tail</title>
<path fill="none" stroke="black" d="M47.96,-78.37C71.06,-66.65 108.42,-47.7 134.71,-34.37"/>
<polygon fill="black" stroke="black" points="136.51,-37.38 143.84,-29.73 133.34,-31.13 136.51,-37.38"/>
</g>
<!-- B&#45;&gt;blowhole -->
<g id="edge6" class="edge">
<title>B&#45;&gt;blowhole</title>
<path fill="none" stroke="black" d="M37.67,-73.12C43.39,-64.59 50.58,-53.89 57.05,-44.25"/>
<polygon fill="black" stroke="black" points="60.05,-46.05 62.72,-35.8 54.24,-42.15 60.05,-46.05"/>
</g>
<!-- C -->
<g id="node4" class="node">
<title>C</title>
<ellipse fill="none" stroke="black" cx="171" cy="-90" rx="27" ry="18"/>
<text text-anchor="middle" x="171" y="-86.3" font-family="Times,serif" font-size="14.00">C</text>
</g>
<!-- C&#45;&gt;tail -->
<g id="edge3" class="edge">
<title>C&#45;&gt;tail</title>
<path fill="none" stroke="black" d="M169.52,-71.7C168.86,-63.98 168.06,-54.71 167.32,-46.11"/>
<polygon fill="black" stroke="black" points="170.81,-45.77 166.47,-36.1 163.83,-46.37 170.81,-45.77"/>
</g>
<!-- C&#45;&gt;blowhole -->
<g id="edge7" class="edge">
<title>C&#45;&gt;blowhole</title>
<path fill="none" stroke="black" d="M153.21,-76.16C139.24,-66.08 119.49,-51.83 103.2,-40.08"/>
<polygon fill="black" stroke="black" points="105.21,-37.21 95.06,-34.19 101.12,-42.88 105.21,-37.21"/>
</g>
<!-- C&#45;&gt;flippers -->
<g id="edge10" class="edge">
<title>C&#45;&gt;flippers</title>
<path fill="none" stroke="black" d="M186.58,-74.83C197.18,-65.2 211.42,-52.25 223.52,-41.25"/>
<polygon fill="black" stroke="black" points="226.06,-43.68 231.1,-34.36 221.35,-38.5 226.06,-43.68"/>
</g>
<!-- D -->
<g id="node5" class="node">
<title>D</title>
<ellipse fill="none" stroke="black" cx="243" cy="-90" rx="27" ry="18"/>
<text text-anchor="middle" x="243" y="-86.3" font-family="Times,serif" font-size="14.00">D</text>
</g>
<!-- D&#45;&gt;tail -->
<g id="edge4" class="edge">
<title>D&#45;&gt;tail</title>
<path fill="none" stroke="black" d="M227.59,-75.17C216.27,-65.01 200.69,-51.03 187.91,-39.56"/>
<polygon fill="black" stroke="black" points="190.16,-36.88 180.38,-32.8 185.48,-42.09 190.16,-36.88"/>
</g>
<!-- D&#45;&gt;blowhole -->
<g id="edge8" class="edge">
<title>D&#45;&gt;blowhole</title>
<path fill="none" stroke="black" d="M221.78,-78.71C216.95,-76.44 211.82,-74.09 207,-72 176.68,-58.82 141.97,-45.02 115.61,-34.82"/>
<polygon fill="black" stroke="black" points="116.53,-31.42 105.94,-31.09 114.01,-37.95 116.53,-31.42"/>
</g>
<!-- D&#45;&gt;flippers -->
<g id="edge11" class="edge">
<title>D&#45;&gt;flippers</title>
<path fill="none" stroke="black" d="M244.24,-71.7C244.79,-63.98 245.45,-54.71 246.06,-46.11"/>
<polygon fill="black" stroke="black" points="249.56,-46.33 246.78,-36.1 242.57,-45.83 249.56,-46.33"/>
</g>
<!-- E -->
<g id="node8" class="node">
<title>E</title>
<ellipse fill="none" stroke="black" cx="315" cy="-90" rx="27" ry="18"/>
<text text-anchor="middle" x="315" y="-86.3" font-family="Times,serif" font-size="14.00">E</text>
</g>
<!-- E&#45;&gt;flippers -->
<g id="edge12" class="edge">
<title>E&#45;&gt;flippers</title>
<path fill="none" stroke="black" d="M301.12,-74.5C292.23,-65.22 280.51,-52.97 270.34,-42.34"/>
<polygon fill="black" stroke="black" points="272.71,-39.75 263.27,-34.95 267.65,-44.59 272.71,-39.75"/>
</g>
</g>
</svg>
