<?xml version="1.0" encoding="UTF-8" standalone="no"?>
<!DOCTYPE svg PUBLIC "-//W3C//DTD SVG 1.1//EN"
 "http://www.w3.org/Graphics/SVG/1.1/DTD/svg11.dtd">
<!-- Generated by graphviz version 2.42.2 ()
 -->
<!-- Title: G Pages: 1 -->
<svg width="608pt" height="206pt"
 viewBox="0.00 0.00 608.04 205.74" xmlns="http://www.w3.org/2000/svg" xmlns:xlink="http://www.w3.org/1999/xlink">
<g id="graph0" class="graph" transform="scale(1 1) rotate(0) translate(4 201.74)">
<title>G</title>
<polygon fill="white" stroke="transparent" points="-4,4 -4,-201.74 604.04,-201.74 604.04,4 -4,4"/>
<!-- dolphin DNA -->
<g id="node1" class="node">
<title>dolphin DNA</title>
<ellipse fill="none" stroke="black" cx="260.69" cy="-179.74" rx="63.09" ry="18"/>
<text text-anchor="middle" x="260.69" y="-176.04" font-family="Times,serif" font-size="14.00">dolphin DNA</text>
</g>
<!-- amino acid\n sequence 1 -->
<g id="node2" class="node">
<title>amino acid\n sequence 1</title>
<ellipse fill="none" stroke="black" cx="58.69" cy="-98.87" rx="58.88" ry="26.74"/>
<text text-anchor="middle" x="58.69" y="-102.67" font-family="Times,serif" font-size="14.00">amino acid</text>
<text text-anchor="middle" x="58.69" y="-87.67" font-family="Times,serif" font-size="14.00"> sequence 1</text>
</g>
<!-- dolphin DNA&#45;&gt;amino acid\n sequence 1 -->
<g id="edge1" class="edge">
<title>dolphin DNA&#45;&gt;amino acid\n sequence 1</title>
<path fill="none" stroke="black" d="M225.04,-164.82C193.78,-152.61 147.87,-134.69 112.2,-120.76"/>
<polygon fill="black" stroke="black" points="113.01,-117.32 102.43,-116.95 110.47,-123.84 113.01,-117.32"/>
</g>
<!-- amino acid\n sequence 2 -->
<g id="node3" class="node">
<title>amino acid\n sequence 2</title>
<ellipse fill="none" stroke="black" cx="193.69" cy="-98.87" rx="58.88" ry="26.74"/>
<text text-anchor="middle" x="193.69" y="-102.67" font-family="Times,serif" font-size="14.00">amino acid</text>
<text text-anchor="middle" x="193.69" y="-87.67" font-family="Times,serif" font-size="14.00"> sequence 2</text>
</g>
<!-- dolphin DNA&#45;&gt;amino acid\n sequence 2 -->
<g id="edge2" class="edge">
<title>dolphin DNA&#45;&gt;amino acid\n sequence 2</title>
<path fill="none" stroke="black" d="M246.48,-162.01C239.01,-153.22 229.6,-142.15 220.8,-131.79"/>
<polygon fill="black" stroke="black" points="223.38,-129.41 214.24,-124.06 218.04,-133.94 223.38,-129.41"/>
</g>
<!-- amino acid\n sequence 3 -->
<g id="node4" class="node">
<title>amino acid\n sequence 3</title>
<ellipse fill="none" stroke="black" cx="328.69" cy="-98.87" rx="58.88" ry="26.74"/>
<text text-anchor="middle" x="328.69" y="-102.67" font-family="Times,serif" font-size="14.00">amino acid</text>
<text text-anchor="middle" x="328.69" y="-87.67" font-family="Times,serif" font-size="14.00"> sequence 3</text>
</g>
<!-- dolphin DNA&#45;&gt;amino acid\n sequence 3 -->
<g id="edge3" class="edge">
<title>dolphin DNA&#45;&gt;amino acid\n sequence 3</title>
<path fill="none" stroke="black" d="M275.11,-162.01C282.69,-153.22 292.24,-142.15 301.17,-131.79"/>
<polygon fill="black" stroke="black" points="303.96,-133.92 307.84,-124.06 298.66,-129.34 303.96,-133.92"/>
</g>
<!-- ... -->
<g id="node5" class="node">
<title>...</title>
<ellipse fill="none" stroke="black" cx="432.69" cy="-98.87" rx="27" ry="18"/>
<text text-anchor="middle" x="432.69" y="-95.17" font-family="Times,serif" font-size="14.00">...</text>
</g>
<!-- dolphin DNA&#45;&gt;... -->
<g id="edge4" class="edge">
<title>dolphin DNA&#45;&gt;...</title>
<path fill="none" stroke="black" d="M301.45,-165.87C329.11,-156.42 366.07,-142.36 396.69,-125.74 400.42,-123.72 404.21,-121.36 407.87,-118.92"/>
<polygon fill="black" stroke="black" points="409.89,-121.77 416.05,-113.16 405.86,-116.05 409.89,-121.77"/>
</g>
<!-- protein 1 -->
<g id="node6" class="node">
<title>protein 1</title>
<ellipse fill="none" stroke="black" cx="58.69" cy="-18" rx="44.39" ry="18"/>
<text text-anchor="middle" x="58.69" y="-14.3" font-family="Times,serif" font-size="14.00">protein 1</text>
</g>
<!-- amino acid\n sequence 1&#45;&gt;protein 1 -->
<g id="edge5" class="edge">
<title>amino acid\n sequence 1&#45;&gt;protein 1</title>
<path fill="none" stroke="black" d="M58.69,-71.61C58.69,-63.51 58.69,-54.57 58.69,-46.39"/>
<polygon fill="black" stroke="black" points="62.19,-46.22 58.69,-36.22 55.19,-46.22 62.19,-46.22"/>
</g>
<!-- protein 2 -->
<g id="node7" class="node">
<title>protein 2</title>
<ellipse fill="none" stroke="black" cx="207.69" cy="-18" rx="44.39" ry="18"/>
<text text-anchor="middle" x="207.69" y="-14.3" font-family="Times,serif" font-size="14.00">protein 2</text>
</g>
<!-- amino acid\n sequence 2&#45;&gt;protein 2 -->
<g id="edge6" class="edge">
<title>amino acid\n sequence 2&#45;&gt;protein 2</title>
<path fill="none" stroke="black" d="M198.27,-72.05C199.73,-63.83 201.35,-54.72 202.83,-46.4"/>
<polygon fill="black" stroke="black" points="206.3,-46.87 204.6,-36.41 199.41,-45.65 206.3,-46.87"/>
</g>
<!-- amino acid\n sequence 3&#45;&gt;protein 2 -->
<g id="edge7" class="edge">
<title>amino acid\n sequence 3&#45;&gt;protein 2</title>
<path fill="none" stroke="black" d="M295.95,-76.53C278.18,-64.95 256.35,-50.72 238.84,-39.3"/>
<polygon fill="black" stroke="black" points="240.41,-36.15 230.12,-33.62 236.59,-42.02 240.41,-36.15"/>
</g>
<!-- protein 3 -->
<g id="node8" class="node">
<title>protein 3</title>
<ellipse fill="none" stroke="black" cx="380.69" cy="-18" rx="44.39" ry="18"/>
<text text-anchor="middle" x="380.69" y="-14.3" font-family="Times,serif" font-size="14.00">protein 3</text>
</g>
<!-- amino acid\n sequence 3&#45;&gt;protein 3 -->
<g id="edge8" class="edge">
<title>amino acid\n sequence 3&#45;&gt;protein 3</title>
<path fill="none" stroke="black" d="M345.14,-72.92C351.19,-63.75 358.03,-53.37 364.08,-44.19"/>
<polygon fill="black" stroke="black" points="367.02,-46.1 369.6,-35.82 361.17,-42.25 367.02,-46.1"/>
</g>
<!-- ...&#45;&gt;protein 3 -->
<g id="edge9" class="edge">
<title>...&#45;&gt;protein 3</title>
<path fill="none" stroke="black" d="M422.17,-81.91C415,-71.04 405.37,-56.44 397.2,-44.04"/>
<polygon fill="black" stroke="black" points="399.98,-41.9 391.56,-35.48 394.14,-45.76 399.98,-41.9"/>
</g>
<!-- tail -->
<g id="node9" class="node">
<title>tail</title>
<ellipse fill="none" stroke="black" cx="368.69" cy="-179.74" rx="27" ry="18"/>
<text text-anchor="middle" x="368.69" y="-176.04" font-family="Times,serif" font-size="14.00">tail</text>
</g>
<!-- blowhole -->
<g id="node10" class="node">
<title>blowhole</title>
<ellipse fill="none" stroke="black" cx="459.69" cy="-179.74" rx="46.29" ry="18"/>
<text text-anchor="middle" x="459.69" y="-176.04" font-family="Times,serif" font-size="14.00">blowhole</text>
</g>
<!-- flippers -->
<g id="node11" class="node">
<title>flippers</title>
<ellipse fill="none" stroke="black" cx="561.69" cy="-179.74" rx="38.19" ry="18"/>
<text text-anchor="middle" x="561.69" y="-176.04" font-family="Times,serif" font-size="14.00">flippers</text>
</g>
</g>
</svg>
