<?xml version="1.0" encoding="UTF-8" standalone="no"?>
<!DOCTYPE svg PUBLIC "-//W3C//DTD SVG 1.1//EN"
 "http://www.w3.org/Graphics/SVG/1.1/DTD/svg11.dtd">
<!-- Generated by graphviz version 2.42.2 ()
 -->
<!-- Title: G Pages: 1 -->
<svg width="517pt" height="295pt"
 viewBox="0.00 0.00 517.00 295.48" xmlns="http://www.w3.org/2000/svg" xmlns:xlink="http://www.w3.org/1999/xlink">
<g id="graph0" class="graph" transform="scale(1 1) rotate(0) translate(4 291.48)">
<title>G</title>
<polygon fill="white" stroke="transparent" points="-4,4 -4,-291.48 513,-291.48 513,4 -4,4"/>
<!-- dolphin\n DNA -->
<g id="node1" class="node">
<title>dolphin\n DNA</title>
<ellipse fill="none" stroke="black" cx="310" cy="-260.61" rx="43.68" ry="26.74"/>
<text text-anchor="middle" x="310" y="-264.41" font-family="Times,serif" font-size="14.00">dolphin</text>
<text text-anchor="middle" x="310" y="-249.41" font-family="Times,serif" font-size="14.00"> DNA</text>
</g>
<!-- amino acid\n sequence 1 -->
<g id="node2" class="node">
<title>amino acid\n sequence 1</title>
<ellipse fill="none" stroke="black" cx="108" cy="-170.87" rx="58.88" ry="26.74"/>
<text text-anchor="middle" x="108" y="-174.67" font-family="Times,serif" font-size="14.00">amino acid</text>
<text text-anchor="middle" x="108" y="-159.67" font-family="Times,serif" font-size="14.00"> sequence 1</text>
</g>
<!-- dolphin\n DNA&#45;&gt;amino acid\n sequence 1 -->
<g id="edge1" class="edge">
<title>dolphin\n DNA&#45;&gt;amino acid\n sequence 1</title>
<path fill="none" stroke="black" d="M274.81,-244.33C242.86,-230.45 195.32,-209.8 159.16,-194.09"/>
<polygon fill="black" stroke="black" points="160.33,-190.78 149.76,-190.01 157.54,-197.2 160.33,-190.78"/>
</g>
<!-- amino acid\n sequence 2 -->
<g id="node3" class="node">
<title>amino acid\n sequence 2</title>
<ellipse fill="none" stroke="black" cx="243" cy="-170.87" rx="58.88" ry="26.74"/>
<text text-anchor="middle" x="243" y="-174.67" font-family="Times,serif" font-size="14.00">amino acid</text>
<text text-anchor="middle" x="243" y="-159.67" font-family="Times,serif" font-size="14.00"> sequence 2</text>
</g>
<!-- dolphin\n DNA&#45;&gt;amino acid\n sequence 2 -->
<g id="edge2" class="edge">
<title>dolphin\n DNA&#45;&gt;amino acid\n sequence 2</title>
<path fill="none" stroke="black" d="M291.69,-235.63C284.35,-226.03 275.78,-214.8 267.9,-204.47"/>
<polygon fill="black" stroke="black" points="270.6,-202.25 261.75,-196.43 265.04,-206.5 270.6,-202.25"/>
</g>
<!-- amino acid\n sequence 3 -->
<g id="node4" class="node">
<title>amino acid\n sequence 3</title>
<ellipse fill="none" stroke="black" cx="378" cy="-170.87" rx="58.88" ry="26.74"/>
<text text-anchor="middle" x="378" y="-174.67" font-family="Times,serif" font-size="14.00">amino acid</text>
<text text-anchor="middle" x="378" y="-159.67" font-family="Times,serif" font-size="14.00"> sequence 3</text>
</g>
<!-- dolphin\n DNA&#45;&gt;amino acid\n sequence 3 -->
<g id="edge3" class="edge">
<title>dolphin\n DNA&#45;&gt;amino acid\n sequence 3</title>
<path fill="none" stroke="black" d="M328.22,-236.1C335.73,-226.4 344.57,-215.01 352.69,-204.53"/>
<polygon fill="black" stroke="black" points="355.66,-206.42 359.01,-196.37 350.12,-202.13 355.66,-206.42"/>
</g>
<!-- ... -->
<g id="node5" class="node">
<title>...</title>
<ellipse fill="none" stroke="black" cx="482" cy="-170.87" rx="27" ry="18"/>
<text text-anchor="middle" x="482" y="-167.17" font-family="Times,serif" font-size="14.00">...</text>
</g>
<!-- dolphin\n DNA&#45;&gt;... -->
<g id="edge4" class="edge">
<title>dolphin\n DNA&#45;&gt;...</title>
<path fill="none" stroke="black" d="M346.47,-245.32C374.42,-233.82 413.57,-216.53 446,-197.74 449.5,-195.71 453.07,-193.43 456.55,-191.08"/>
<polygon fill="black" stroke="black" points="458.72,-193.83 464.88,-185.21 454.69,-188.11 458.72,-193.83"/>
</g>
<!-- protein 1 -->
<g id="node6" class="node">
<title>protein 1</title>
<ellipse fill="none" stroke="black" cx="122" cy="-90" rx="44.39" ry="18"/>
<text text-anchor="middle" x="122" y="-86.3" font-family="Times,serif" font-size="14.00">protein 1</text>
</g>
<!-- amino acid\n sequence 1&#45;&gt;protein 1 -->
<g id="edge5" class="edge">
<title>amino acid\n sequence 1&#45;&gt;protein 1</title>
<path fill="none" stroke="black" d="M112.58,-144.05C114.04,-135.83 115.66,-126.72 117.14,-118.4"/>
<polygon fill="black" stroke="black" points="120.61,-118.87 118.91,-108.41 113.72,-117.65 120.61,-118.87"/>
</g>
<!-- protein 2 -->
<g id="node7" class="node">
<title>protein 2</title>
<ellipse fill="none" stroke="black" cx="243" cy="-90" rx="44.39" ry="18"/>
<text text-anchor="middle" x="243" y="-86.3" font-family="Times,serif" font-size="14.00">protein 2</text>
</g>
<!-- amino acid\n sequence 2&#45;&gt;protein 2 -->
<g id="edge6" class="edge">
<title>amino acid\n sequence 2&#45;&gt;protein 2</title>
<path fill="none" stroke="black" d="M243,-143.61C243,-135.51 243,-126.57 243,-118.39"/>
<polygon fill="black" stroke="black" points="246.5,-118.22 243,-108.22 239.5,-118.22 246.5,-118.22"/>
</g>
<!-- amino acid\n sequence 3&#45;&gt;protein 2 -->
<g id="edge7" class="edge">
<title>amino acid\n sequence 3&#45;&gt;protein 2</title>
<path fill="none" stroke="black" d="M342.53,-149.15C321.94,-137.12 296.16,-122.06 276,-110.28"/>
<polygon fill="black" stroke="black" points="277.57,-107.15 267.17,-105.12 274.04,-113.19 277.57,-107.15"/>
</g>
<!-- protein 3 -->
<g id="node8" class="node">
<title>protein 3</title>
<ellipse fill="none" stroke="black" cx="382" cy="-90" rx="44.39" ry="18"/>
<text text-anchor="middle" x="382" y="-86.3" font-family="Times,serif" font-size="14.00">protein 3</text>
</g>
<!-- amino acid\n sequence 3&#45;&gt;protein 3 -->
<g id="edge8" class="edge">
<title>amino acid\n sequence 3&#45;&gt;protein 3</title>
<path fill="none" stroke="black" d="M379.33,-143.61C379.74,-135.51 380.2,-126.57 380.61,-118.39"/>
<polygon fill="black" stroke="black" points="384.12,-118.38 381.13,-108.22 377.12,-118.03 384.12,-118.38"/>
</g>
<!-- ...&#45;&gt;protein 3 -->
<g id="edge9" class="edge">
<title>...&#45;&gt;protein 3</title>
<path fill="none" stroke="black" d="M465.04,-156.49C449.9,-144.56 427.46,-126.86 409.73,-112.87"/>
<polygon fill="black" stroke="black" points="411.47,-109.78 401.45,-106.34 407.13,-115.28 411.47,-109.78"/>
</g>
<!-- A -->
<g id="node9" class="node">
<title>A</title>
<ellipse fill="none" stroke="black" cx="243" cy="-18" rx="27" ry="18"/>
<text text-anchor="middle" x="243" y="-14.3" font-family="Times,serif" font-size="14.00">A</text>
</g>
<!-- protein 1&#45;&gt;A -->
<g id="edge10" class="edge">
<title>protein 1&#45;&gt;A</title>
<path fill="none" stroke="black" d="M146.49,-74.83C166.22,-63.42 193.98,-47.36 214.67,-35.39"/>
<polygon fill="black" stroke="black" points="216.44,-38.41 223.34,-30.37 212.93,-32.35 216.44,-38.41"/>
</g>
<!-- B -->
<g id="node10" class="node">
<title>B</title>
<ellipse fill="none" stroke="black" cx="27" cy="-18" rx="27" ry="18"/>
<text text-anchor="middle" x="27" y="-14.3" font-family="Times,serif" font-size="14.00">B</text>
</g>
<!-- protein 1&#45;&gt;B -->
<g id="edge11" class="edge">
<title>protein 1&#45;&gt;B</title>
<path fill="none" stroke="black" d="M101.39,-73.81C87.02,-63.23 67.76,-49.04 52.44,-37.75"/>
<polygon fill="black" stroke="black" points="54.52,-34.93 44.39,-31.81 50.36,-40.56 54.52,-34.93"/>
</g>
<!-- C -->
<g id="node11" class="node">
<title>C</title>
<ellipse fill="none" stroke="black" cx="171" cy="-18" rx="27" ry="18"/>
<text text-anchor="middle" x="171" y="-14.3" font-family="Times,serif" font-size="14.00">C</text>
</g>
<!-- protein 1&#45;&gt;C -->
<g id="edge12" class="edge">
<title>protein 1&#45;&gt;C</title>
<path fill="none" stroke="black" d="M133.61,-72.41C139.77,-63.62 147.44,-52.66 154.22,-42.96"/>
<polygon fill="black" stroke="black" points="157.28,-44.71 160.14,-34.51 151.54,-40.7 157.28,-44.71"/>
</g>
<!-- F -->
<g id="node12" class="node">
<title>F</title>
<ellipse fill="none" stroke="black" cx="315" cy="-18" rx="27" ry="18"/>
<text text-anchor="middle" x="315" y="-14.3" font-family="Times,serif" font-size="14.00">F</text>
</g>
<!-- protein 1&#45;&gt;F -->
<g id="edge13" class="edge">
<title>protein 1&#45;&gt;F</title>
<path fill="none" stroke="black" d="M156.41,-78.65C188.5,-68.69 237.51,-52.73 279,-36 280.83,-35.26 282.69,-34.48 284.57,-33.67"/>
<polygon fill="black" stroke="black" points="286.18,-36.78 293.86,-29.48 283.31,-30.4 286.18,-36.78"/>
</g>
<!-- G -->
<g id="node13" class="node">
<title>G</title>
<ellipse fill="none" stroke="black" cx="99" cy="-18" rx="27" ry="18"/>
<text text-anchor="middle" x="99" y="-14.3" font-family="Times,serif" font-size="14.00">G</text>
</g>
<!-- protein 1&#45;&gt;G -->
<g id="edge14" class="edge">
<title>protein 1&#45;&gt;G</title>
<path fill="none" stroke="black" d="M116.43,-72.05C113.8,-64.06 110.61,-54.33 107.67,-45.4"/>
<polygon fill="black" stroke="black" points="110.96,-44.2 104.52,-35.79 104.31,-46.38 110.96,-44.2"/>
</g>
<!-- protein 2&#45;&gt;A -->
<g id="edge15" class="edge">
<title>protein 2&#45;&gt;A</title>
<path fill="none" stroke="black" d="M243,-71.7C243,-63.98 243,-54.71 243,-46.11"/>
<polygon fill="black" stroke="black" points="246.5,-46.1 243,-36.1 239.5,-46.1 246.5,-46.1"/>
</g>
<!-- protein 2&#45;&gt;C -->
<g id="edge17" class="edge">
<title>protein 2&#45;&gt;C</title>
<path fill="none" stroke="black" d="M226.66,-73.12C216.78,-63.51 204.05,-51.13 193.25,-40.63"/>
<polygon fill="black" stroke="black" points="195.41,-37.85 185.8,-33.39 190.53,-42.87 195.41,-37.85"/>
</g>
<!-- protein 2&#45;&gt;G -->
<g id="edge18" class="edge">
<title>protein 2&#45;&gt;G</title>
<path fill="none" stroke="black" d="M215.58,-75.67C190.97,-63.71 154.92,-46.19 129.44,-33.8"/>
<polygon fill="black" stroke="black" points="130.76,-30.55 120.24,-29.32 127.7,-36.84 130.76,-30.55"/>
</g>
<!-- E -->
<g id="node14" class="node">
<title>E</title>
<ellipse fill="none" stroke="black" cx="387" cy="-18" rx="27" ry="18"/>
<text text-anchor="middle" x="387" y="-14.3" font-family="Times,serif" font-size="14.00">E</text>
</g>
<!-- protein 2&#45;&gt;E -->
<g id="edge16" class="edge">
<title>protein 2&#45;&gt;E</title>
<path fill="none" stroke="black" d="M270.42,-75.67C295.03,-63.71 331.08,-46.19 356.56,-33.8"/>
<polygon fill="black" stroke="black" points="358.3,-36.84 365.76,-29.32 355.24,-30.55 358.3,-36.84"/>
</g>
<!-- protein 3&#45;&gt;A -->
<g id="edge19" class="edge">
<title>protein 3&#45;&gt;A</title>
<path fill="none" stroke="black" d="M355.2,-75.5C331.66,-63.65 297.45,-46.42 273,-34.11"/>
<polygon fill="black" stroke="black" points="274.33,-30.86 263.83,-29.49 271.19,-37.11 274.33,-30.86"/>
</g>
<!-- protein 3&#45;&gt;F -->
<g id="edge22" class="edge">
<title>protein 3&#45;&gt;F</title>
<path fill="none" stroke="black" d="M366.46,-72.76C357.47,-63.37 346.02,-51.41 336.2,-41.15"/>
<polygon fill="black" stroke="black" points="338.53,-38.52 329.09,-33.72 333.47,-43.36 338.53,-38.52"/>
</g>
<!-- protein 3&#45;&gt;E -->
<g id="edge21" class="edge">
<title>protein 3&#45;&gt;E</title>
<path fill="none" stroke="black" d="M383.24,-71.7C383.79,-63.98 384.45,-54.71 385.06,-46.11"/>
<polygon fill="black" stroke="black" points="388.56,-46.33 385.78,-36.1 381.57,-45.83 388.56,-46.33"/>
</g>
<!-- D -->
<g id="node15" class="node">
<title>D</title>
<ellipse fill="none" stroke="black" cx="459" cy="-18" rx="27" ry="18"/>
<text text-anchor="middle" x="459" y="-14.3" font-family="Times,serif" font-size="14.00">D</text>
</g>
<!-- protein 3&#45;&gt;D -->
<g id="edge20" class="edge">
<title>protein 3&#45;&gt;D</title>
<path fill="none" stroke="black" d="M399.47,-73.12C410.29,-63.28 424.3,-50.55 436.01,-39.9"/>
<polygon fill="black" stroke="black" points="438.64,-42.24 443.68,-32.93 433.93,-37.06 438.64,-42.24"/>
</g>
</g>
</svg>
