<?xml version="1.0" encoding="UTF-8" standalone="no"?>
<!DOCTYPE svg PUBLIC "-//W3C//DTD SVG 1.1//EN"
 "http://www.w3.org/Graphics/SVG/1.1/DTD/svg11.dtd">
<!-- Generated by graphviz version 2.42.2 ()
 -->
<!-- Title: H Pages: 1 -->
<svg width="308pt" height="134pt"
 viewBox="0.00 0.00 308.42 133.74" xmlns="http://www.w3.org/2000/svg" xmlns:xlink="http://www.w3.org/1999/xlink">
<g id="graph0" class="graph" transform="scale(1 1) rotate(0) translate(4 129.74)">
<title>H</title>
<polygon fill="white" stroke="transparent" points="-4,4 -4,-129.74 304.42,-129.74 304.42,4 -4,4"/>
<!-- vaccines\nare safe -->
<g id="node1" class="node">
<title>vaccines\nare safe</title>
<ellipse fill="none" stroke="black" cx="55.15" cy="-98.87" rx="55.31" ry="26.74"/>
<text text-anchor="middle" x="55.15" y="-102.67" font-family="Times-Roman" font-size="14.00">vaccines</text>
<text text-anchor="middle" x="55.15" y="-87.67" font-family="Times-Roman" font-size="14.00">are safe</text>
</g>
<!-- vaccinate against measles -->
<g id="node2" class="node">
<title>vaccinate against measles</title>
<ellipse fill="none" stroke="black" cx="134.15" cy="-18" rx="133.78" ry="18"/>
<text text-anchor="middle" x="134.15" y="-14.3" font-family="Times-Roman" font-size="14.00">vaccinate against measles</text>
</g>
<!-- vaccines\nare safe&#45;&gt;vaccinate against measles -->
<g id="edge1" class="edge">
<title>vaccines\nare safe&#45;&gt;vaccinate against measles</title>
<path fill="none" stroke="black" d="M78.86,-74.21C88.71,-64.37 100.13,-52.97 110.02,-43.09"/>
<polygon fill="black" stroke="black" points="112.64,-45.43 117.24,-35.88 107.69,-40.47 112.64,-45.43"/>
</g>
<!-- measles\nare dangerous -->
<g id="node3" class="node">
<title>measles\nare dangerous</title>
<ellipse fill="none" stroke="black" cx="214.15" cy="-98.87" rx="86.03" ry="26.74"/>
<text text-anchor="middle" x="214.15" y="-102.67" font-family="Times-Roman" font-size="14.00">measles</text>
<text text-anchor="middle" x="214.15" y="-87.67" font-family="Times-Roman" font-size="14.00">are dangerous</text>
</g>
<!-- measles\nare dangerous&#45;&gt;vaccinate against measles -->
<g id="edge2" class="edge">
<title>measles\nare dangerous&#45;&gt;vaccinate against measles</title>
<path fill="none" stroke="black" d="M188.84,-72.92C179.31,-63.51 168.48,-52.84 158.99,-43.48"/>
<polygon fill="black" stroke="black" points="161.29,-40.84 151.71,-36.31 156.37,-45.82 161.29,-40.84"/>
</g>
</g>
</svg>
